<?xml version="1.0" encoding="utf-8"?>
<!-- Generator: Adobe Illustrator 26.4.1, SVG Export Plug-In . SVG Version: 6.00 Build 0)  -->
<svg version="1.1" id="图层_1" xmlns="http://www.w3.org/2000/svg" xmlns:xlink="http://www.w3.org/1999/xlink" x="0px" y="0px"
	 viewBox="0 0 160 50" style="enable-background:new 0 0 160 50;" xml:space="preserve">
<style type="text/css">
	.st0{fill:url(#XMLID_00000160165447523422554000000007894559956994709183_);}
	
		.st1{clip-path:url(#SVGID_00000098185385305772688300000015308868506287121307_);fill:url(#SVGID_00000010312011406825635390000015018286997519030461_);}
	
		.st2{clip-path:url(#SVGID_00000082349825244567291680000001195073060222489746_);fill:url(#SVGID_00000139274078909127037180000004675832030134212507_);}
	
		.st3{clip-path:url(#SVGID_00000042003108893961235630000007578310093864860050_);fill:url(#SVGID_00000182513712859102088990000010394861212211694780_);}
</style>
<g>
	<g>
		<g>
			
				<linearGradient id="XMLID_00000077286884381084871250000006499543251553560962_" gradientUnits="userSpaceOnUse" x1="15.1158" y1="-1755.5961" x2="52.6994" y2="-1733.8971" gradientTransform="matrix(1 0 0 -1 0 -1728.2283)">
				<stop  offset="0" style="stop-color:#E48E00"/>
				<stop  offset="0.1853" style="stop-color:#F6AB00"/>
				<stop  offset="0.3194" style="stop-color:#FABE00"/>
				<stop  offset="0.4702" style="stop-color:#FDD108"/>
			</linearGradient>
			<path id="XMLID_21_" style="fill:url(#XMLID_00000077286884381084871250000006499543251553560962_);" d="M48.8,6H5.1l0,0
				c0,8,6.5,14.5,14.5,14.5h5c-0.8,2.3-1.3,4.7-1.3,7.3c0,8.8,5.6,14.6,10.3,14.6c4.5,0,8.3-3.3,9-7.7c-2.8-1-4.8-3.7-4.8-6.9
				c0-4.8,4.3-7.3,7.3-7.3c2.4,0,4.5,1.2,5.8,2.9c2.7-2.1,5.1-6.5,5.1-10.2C56,9.2,52.8,6,48.8,6z"/>
		</g>
		<g>
			<g>
				<g>
					<g>
						<g>
							<defs>
								<path id="SVGID_1_" d="M48.8,6H5.1l0,0c0,8,6.5,14.5,14.5,14.5h5c-0.8,2.3-1.3,4.7-1.3,7.3c0,8.8,5.6,14.6,10.3,14.6
									c4.5,0,8.3-3.3,9-7.7c-2.8-1-4.8-3.7-4.8-6.9c0-4.8,4.3-7.3,7.3-7.3c2.4,0,4.5,1.2,5.8,2.9c2.7-2.1,5.1-6.5,5.1-10.2
									C56,9.2,52.8,6,48.8,6z"/>
							</defs>
							<clipPath id="SVGID_00000041996320964921110330000006534106306616629692_">
								<use xlink:href="#SVGID_1_"  style="overflow:visible;"/>
							</clipPath>
							
								<linearGradient id="SVGID_00000034777522439749364430000009136088740893792156_" gradientUnits="userSpaceOnUse" x1="10.0807" y1="-1737.9548" x2="53.3856" y2="-1662.9486" gradientTransform="matrix(1 0 0 -1 0 -1728.2283)">
								<stop  offset="0" style="stop-color:#FDD000;stop-opacity:0.2"/>
								<stop  offset="0.5012" style="stop-color:#E48E00"/>
							</linearGradient>
							
								<path style="clip-path:url(#SVGID_00000041996320964921110330000006534106306616629692_);fill:url(#SVGID_00000034777522439749364430000009136088740893792156_);" d="
								M71.2-25.6c0,22.5-18.2,40.8-40.8,40.8S-10.2-3-10.2-25.6S8-66.3,30.5-66.3c9.1,0,21.6-0.7,28.4,4.4
								C68.9-54.6,71.2-39.1,71.2-25.6z"/>
						</g>
					</g>
				</g>
			</g>
		</g>
		<g>
			<g>
				<g>
					<g>
						<g>
							<defs>
								<path id="SVGID_00000105387454945104021650000007783209534552481175_" d="M48.8,6H5.1l0,0c0,8,6.5,14.5,14.5,14.5h5
									c-0.8,2.3-1.3,4.7-1.3,7.3c0,8.8,5.6,14.6,10.3,14.6c4.5,0,8.3-3.3,9-7.7c-2.8-1-4.8-3.7-4.8-6.9c0-4.8,4.3-7.3,7.3-7.3
									c2.4,0,4.5,1.2,5.8,2.9c2.7-2.1,5.1-6.5,5.1-10.2C56,9.2,52.8,6,48.8,6z"/>
							</defs>
							<clipPath id="SVGID_00000053507069487541251330000008629602770344136335_">
								<use xlink:href="#SVGID_00000105387454945104021650000007783209534552481175_"  style="overflow:visible;"/>
							</clipPath>
							
								<linearGradient id="SVGID_00000162328497572401922030000003951191674966451608_" gradientUnits="userSpaceOnUse" x1="26.1207" y1="-1766.3762" x2="64.9645" y2="-1743.9497" gradientTransform="matrix(1 0 0 -1 0 -1728.2283)">
								<stop  offset="1.614687e-07" style="stop-color:#E48E00"/>
								<stop  offset="7.156011e-02" style="stop-color:#F39800"/>
								<stop  offset="0.1786" style="stop-color:#F6AB00"/>
								<stop  offset="0.6" style="stop-color:#FDD108"/>
							</linearGradient>
							
								<path style="clip-path:url(#SVGID_00000053507069487541251330000008629602770344136335_);fill:url(#SVGID_00000162328497572401922030000003951191674966451608_);" d="
								M66.1,27.4c0,11.8-9.6,21.4-21.4,21.4s-21.4-9.6-21.4-21.4S32.8,6,44.7,6C49.5,6,56,5.6,59.6,8.4
								C64.9,12.2,66.1,20.3,66.1,27.4z"/>
						</g>
					</g>
				</g>
			</g>
		</g>
		<g>
			<g>
				<g>
					<g>
						<g>
							<defs>
								<path id="SVGID_00000033355742481443876480000008632459563556960144_" d="M48.8,6H5.1l0,0c0,8,6.5,14.5,14.5,14.5h5
									c-0.8,2.3-1.3,4.7-1.3,7.3c0,8.8,5.6,14.6,10.3,14.6c4.5,0,8.3-3.3,9-7.7c-2.8-1-4.8-3.7-4.8-6.9c0-4.8,4.3-7.3,7.3-7.3
									c2.4,0,4.5,1.2,5.8,2.9c2.7-2.1,5.1-6.5,5.1-10.2C56,9.2,52.8,6,48.8,6z"/>
							</defs>
							<clipPath id="SVGID_00000072959513435565970570000005589610005128974995_">
								<use xlink:href="#SVGID_00000033355742481443876480000008632459563556960144_"  style="overflow:visible;"/>
							</clipPath>
							
								<linearGradient id="SVGID_00000078037596401971890400000013427158393818990239_" gradientUnits="userSpaceOnUse" x1="33.35" y1="-1748.8783" x2="63.915" y2="-1748.8783" gradientTransform="matrix(1 0 0 -1 0 -1728.2283)">
								<stop  offset="2.422030e-07" style="stop-color:#FDD108"/>
								<stop  offset="1" style="stop-color:#E48E00"/>
							</linearGradient>
							
								<circle style="clip-path:url(#SVGID_00000072959513435565970570000005589610005128974995_);fill:url(#SVGID_00000078037596401971890400000013427158393818990239_);" cx="48.7" cy="20.6" r="15.3"/>
						</g>
					</g>
				</g>
			</g>
		</g>
	</g>
	<g>
		<path d="M71.2,36V13.4h-8.1V8.9h21.6v4.6h-8.1V36H71.2z"/>
		<path d="M87.6,13.6V8.8h5.2v4.8H87.6z M87.6,36V16.4h5.2v19.7C92.8,36,87.6,36,87.6,36z"/>
		<path d="M97.7,37.3l6,0.7c0.1,0.7,0.3,1.2,0.7,1.4c0.5,0.4,1.3,0.6,2.3,0.6c1.4,0,2.4-0.2,3.1-0.6c0.5-0.3,0.8-0.7,1-1.3
			c0.2-0.4,0.2-1.2,0.2-2.4v-2.9c-1.6,2.1-3.5,3.2-5.9,3.2c-2.6,0-4.7-1.1-6.3-3.4c-1.2-1.8-1.8-4-1.8-6.6c0-3.3,0.8-5.8,2.4-7.6
			c1.6-1.7,3.6-2.6,5.9-2.6c2.4,0,4.5,1.1,6,3.2v-2.8h4.9V34c0,2.3-0.2,4.1-0.6,5.2c-0.4,1.2-0.9,2.1-1.6,2.7
			c-0.7,0.7-1.6,1.2-2.8,1.5c-1.2,0.4-2.6,0.6-4.4,0.6c-3.3,0-5.7-0.6-7.1-1.7c-1.4-1.1-2.1-2.6-2.1-4.4
			C97.7,37.8,97.7,37.6,97.7,37.3z M102.2,25.8c0,2.1,0.4,3.6,1.2,4.6c0.8,1,1.8,1.5,3,1.5c1.3,0,2.4-0.5,3.2-1.5
			c0.9-1,1.3-2.5,1.3-4.4c0-2-0.4-3.6-1.3-4.5c-0.8-1-1.9-1.5-3.2-1.5s-2.3,0.5-3.1,1.5C102.7,22.3,102.2,23.8,102.2,25.8z"/>
		<path d="M132.8,29.8l5.2,0.9c-0.7,1.9-1.7,3.4-3.2,4.4c-1.4,1-3.2,1.5-5.4,1.5c-3.4,0-6-1.1-7.6-3.4c-1.3-1.8-1.9-4.1-1.9-6.8
			c0-3.3,0.9-5.8,2.6-7.7c1.7-1.9,3.9-2.8,6.5-2.8c2.9,0,5.2,1,6.9,2.9s2.5,4.9,2.4,8.9h-13.1c0,1.5,0.5,2.8,1.3,3.6
			c0.8,0.9,1.8,1.3,3,1.3c0.8,0,1.5-0.2,2.1-0.7C132.1,31.5,132.4,30.7,132.8,29.8z M133.1,24.5c0-1.5-0.4-2.7-1.2-3.4
			c-0.7-0.8-1.6-1.2-2.7-1.2c-1.1,0-2.1,0.4-2.8,1.2s-1.1,2-1.1,3.4H133.1z"/>
		<path d="M147.4,36h-5.2V16.4h4.8v2.8c0.8-1.3,1.6-2.2,2.2-2.6c0.7-0.4,1.4-0.6,2.3-0.6c1.2,0,2.3,0.3,3.4,1l-1.6,4.5
			c-0.9-0.6-1.7-0.9-2.5-0.9c-0.7,0-1.3,0.2-1.9,0.6c-0.5,0.4-0.9,1.1-1.2,2.2c-0.3,1.1-0.4,3.3-0.4,6.6L147.4,36L147.4,36z"/>
	</g>
</g>
</svg>
