<svg width="64" height="64" viewBox="0 0 64 64" fill="none" xmlns="http://www.w3.org/2000/svg">
<g id="vuesax/bold/monitor-mobbile">
<g id="monitor-mobbile">
<path id="Vector" d="M55.9733 25.8933C55.0667 25.52 53.8667 25.3333 52.3733 25.3333H38.2933C33.6533 25.3333 32 26.9867 32 31.68V52.32C32 53.8667 32.1867 55.0667 32.5867 56C33.4133 57.92 35.1733 58.6667 38.2933 58.6667H52.3733C57.0133 58.6667 58.6667 56.9867 58.6667 52.32V31.68C58.6667 28.5067 57.92 26.72 55.9733 25.8933ZM48 52.6667H42.6667C42.6133 52.6667 42.5333 52.6667 42.48 52.64C42.08 52.6133 41.7333 52.48 41.44 52.2133C40.96 51.8667 40.6667 51.3067 40.6667 50.6667C40.6667 49.5733 41.5733 48.6667 42.6667 48.6667H48C49.0933 48.6667 50 49.5733 50 50.6667C50 51.76 49.0933 52.6667 48 52.6667Z" fill="#E50028"/>
<path id="Vector_2" d="M55.9734 16.5067V18.6667C55.9734 20.1333 54.7734 21.3333 53.3068 21.3333H38.2934C31.4668 21.3333 28.0001 24.8267 28.0001 31.68V56C28.0001 57.4667 26.8001 58.6667 25.3334 58.6667H20.1334C19.0668 58.6667 18.2134 57.8133 18.2134 56.7733C18.2134 55.7067 19.0668 54.88 20.1334 54.88H25.3334V44.6667H16.0001C10.0801 44.3733 5.36011 39.4933 5.36011 33.4933V16.5067C5.36011 10.3467 10.3734 5.33334 16.5601 5.33334H44.8001C50.9601 5.33334 55.9734 10.3467 55.9734 16.5067Z" fill="#E50028"/>
</g>
</g>
</svg>
