<svg width="56" height="56" viewBox="0 0 56 56" fill="none" xmlns="http://www.w3.org/2000/svg">
<g id="vuesax/bold/global">
<path id="Vector" d="M17.8501 48.79C17.7801 48.79 17.6868 48.8367 17.6168 48.8367C13.0901 46.5967 9.40347 42.8867 7.14014 38.36C7.14014 38.29 7.1868 38.1967 7.1868 38.1267C10.0335 38.9667 12.9735 39.5967 15.8901 40.0867C16.4035 43.0267 17.0101 45.9434 17.8501 48.79Z" fill="#FFBE00"/>
<path id="Vector_2" d="M48.8598 38.3834C46.5498 43.0267 42.6998 46.7834 38.0098 49.0467C38.8964 46.0834 39.6431 43.0967 40.1331 40.0867C43.0731 39.5967 45.9664 38.9667 48.8131 38.1267C48.7898 38.22 48.8598 38.3134 48.8598 38.3834Z" fill="#FFBE00"/>
<path id="Vector_3" d="M49.0464 17.99C46.1064 17.1034 43.1431 16.38 40.1331 15.8667C39.6431 12.8567 38.9198 9.87004 38.0098 6.95337C42.8398 9.26337 46.7364 13.16 49.0464 17.99Z" fill="#FFBE00"/>
<path id="Vector_4" d="M17.8498 7.20989C17.0098 10.0566 16.4031 12.9499 15.9131 15.8899C12.9031 16.3566 9.91646 17.1032 6.95312 17.9899C9.21646 13.2999 12.9731 9.44989 17.6165 7.13989C17.6865 7.13989 17.7798 7.20989 17.8498 7.20989Z" fill="#FFBE00"/>
<path id="Vector_5" d="M36.1431 15.3767C30.7298 14.7701 25.2698 14.7701 19.8564 15.3767C20.4398 12.1801 21.1864 8.98341 22.2364 5.90341C22.2831 5.71675 22.2598 5.57675 22.2831 5.39008C24.1264 4.94675 26.0164 4.66675 27.9998 4.66675C29.9598 4.66675 31.8731 4.94675 33.6931 5.39008C33.7164 5.57675 33.7164 5.71675 33.7631 5.90341C34.8131 9.00675 35.5598 12.1801 36.1431 15.3767Z" fill="#FFBE00"/>
<path id="Vector_6" d="M15.3765 36.1434C12.1565 35.56 8.98317 34.8134 5.90317 33.7634C5.7165 33.7167 5.5765 33.74 5.38984 33.7167C4.9465 31.8734 4.6665 29.9834 4.6665 28C4.6665 26.04 4.9465 24.1267 5.38984 22.3067C5.5765 22.2834 5.7165 22.2834 5.90317 22.2367C9.0065 21.21 12.1565 20.44 15.3765 19.8567C14.7932 25.27 14.7932 30.73 15.3765 36.1434Z" fill="#FFBE00"/>
<path id="Vector_7" d="M51.3335 28C51.3335 29.9834 51.0535 31.8734 50.6102 33.7167C50.4235 33.74 50.2835 33.7167 50.0969 33.7634C46.9935 34.79 43.8202 35.56 40.6235 36.1434C41.2302 30.73 41.2302 25.27 40.6235 19.8567C43.8202 20.44 47.0169 21.1867 50.0969 22.2367C50.2835 22.2834 50.4235 22.3067 50.6102 22.3067C51.0535 24.15 51.3335 26.04 51.3335 28Z" fill="#FFBE00"/>
<path id="Vector_8" d="M36.1431 40.6233C35.5598 43.8433 34.8131 47.0166 33.7631 50.0966C33.7164 50.2833 33.7164 50.4233 33.6931 50.61C31.8731 51.0533 29.9598 51.3333 27.9998 51.3333C26.0164 51.3333 24.1264 51.0533 22.2831 50.61C22.2598 50.4233 22.2831 50.2833 22.2364 50.0966C21.2098 46.9933 20.4398 43.8433 19.8564 40.6233C22.5631 40.9266 25.2698 41.1366 27.9998 41.1366C30.7298 41.1366 33.4598 40.9266 36.1431 40.6233Z" fill="#FFBE00"/>
<path id="Vector_9" d="M36.7809 36.7812C30.9451 37.5175 25.0546 37.5175 19.2187 36.7812C18.4824 30.9453 18.4824 25.0549 19.2187 19.219C25.0546 18.4827 30.9451 18.4827 36.7809 19.219C37.5172 25.0549 37.5172 30.9453 36.7809 36.7812Z" fill="#FFBE00"/>
</g>
</svg>
