<svg width="24" height="24" viewBox="0 0 24 24" fill="none" xmlns="http://www.w3.org/2000/svg">
<g id="pengren 1">
<g id="Group 3501">
<path id="Vector" d="M6.18597 10.0455H11.0654L10.742 8.75219C10.6537 8.39968 11.0361 8.10567 11.3885 8.10567H12.2999C12.6524 8.10567 13.0349 8.39979 12.9464 8.75219L12.623 10.0455H17.6787C18.8545 10.0455 19.8246 10.9275 19.9717 12.0443H3.92247C4.03999 10.9274 5.03938 10.0455 6.18582 10.0455H6.18597ZM19.9718 13.1026H22.0588C22.8522 13.1026 22.9703 13.3085 22.9995 13.7491C22.9995 14.1016 23.0288 14.484 22.882 14.631C22.5878 14.9544 21.9413 14.8957 21.3826 14.3958C21.0301 14.0724 20.4127 14.0433 20.0012 14.0433V19.4226C20.0012 20.6865 18.9725 21.7156 17.7082 21.7156H6.21519C4.95125 21.7156 3.9222 20.6869 3.9222 19.4226V14.0433C3.51072 14.0141 2.86428 14.0726 2.51134 14.3958C1.95278 14.8956 1.30615 14.9544 1.01201 14.631C0.865134 14.4841 0.865134 14.0724 0.894483 13.7491C0.953476 13.22 1.10037 13.1026 1.92313 13.1026H19.9714M8.91973 4.34305C9.33121 4.75452 9.33121 5.45995 8.91973 5.87154C8.77286 6.04809 8.77286 6.31245 8.91973 6.45951C9.00799 6.54776 9.09629 6.57703 9.21385 6.57703C9.30211 6.57703 9.41974 6.54774 9.50797 6.45951C10.2135 5.72458 10.2135 4.49017 9.50797 3.7551C9.30209 3.54921 9.21385 3.2848 9.21385 2.99078C9.21385 2.69676 9.33138 2.43222 9.50797 2.22646C9.65485 2.0499 9.65485 1.78555 9.50797 1.63849C9.3611 1.46193 9.0965 1.46193 8.94942 1.63849C8.59691 1.99099 8.42033 2.49096 8.42033 2.99059C8.39105 3.4903 8.5672 3.9605 8.92005 4.34269L8.91973 4.34305ZM11.6826 5.84227C11.5357 6.01883 11.5357 6.28318 11.6826 6.43024C11.7708 6.5185 11.8591 6.54777 11.9767 6.54777C12.065 6.54777 12.1826 6.51848 12.2708 6.43024C12.9764 5.69532 12.9764 4.46091 12.2708 3.72583C12.0649 3.51995 11.9767 3.25553 11.9767 2.96151C11.9767 2.6675 12.0942 2.40296 12.2708 2.1972C12.4177 2.02064 12.4177 1.75629 12.2708 1.60922C12.124 1.43267 11.8594 1.43267 11.7123 1.60922C11.3598 1.96173 11.1832 2.4617 11.1832 2.96132C11.1832 3.46104 11.3597 3.96069 11.7123 4.31342C12.0648 4.75433 12.0648 5.43033 11.683 5.84191L11.6826 5.84227ZM14.2693 5.84227C14.1224 6.01883 14.1224 6.28318 14.2693 6.43024C14.3576 6.5185 14.4459 6.54777 14.5634 6.54777C14.681 6.54777 14.7693 6.51848 14.8575 6.43024C15.5631 5.69532 15.5631 4.46091 14.8575 3.72583C14.6517 3.51995 14.5634 3.25553 14.5634 2.96151C14.5634 2.6675 14.681 2.40296 14.8575 2.1972C15.0044 2.02064 15.0044 1.75629 14.8575 1.60922C14.7107 1.43267 14.4461 1.43267 14.299 1.60922C13.9465 1.96173 13.7699 2.4617 13.7699 2.96132C13.7699 3.46095 13.9465 3.96069 14.299 4.31342C14.6809 4.75433 14.6809 5.43033 14.2697 5.84191L14.2693 5.84227Z" fill="white"/>
<path id="Vector_2" d="M17.5908 22.3912H6.30337C4.77488 22.3912 3.54029 21.1567 3.54029 19.6281V14.8659C3.27562 14.8952 3.09938 14.9542 2.98173 15.0425C2.57025 15.4244 2.07026 15.6305 1.6003 15.601C1.27685 15.5718 1.01233 15.4542 0.806947 15.2485C0.601061 15.0134 0.512824 14.5726 0.571796 14.014C0.660054 13.0147 1.33611 12.9265 2.07113 12.9265H21.8829C22.5294 12.9265 23.2643 13.044 23.2937 14.0434C23.2937 14.4843 23.323 14.9549 23.0586 15.2486C22.8527 15.4545 22.5883 15.6011 22.2652 15.6011C21.7949 15.6304 21.2953 15.4246 20.8838 15.0426C20.7955 14.9543 20.5897 14.8957 20.3547 14.866V19.6282C20.3254 21.1567 19.0908 22.3913 17.5916 22.3913L17.5908 22.3912ZM4.5399 13.9254V19.6574C4.5399 20.6273 5.33325 21.4209 6.3035 21.4209H17.5909C18.5608 21.4209 19.3545 20.6276 19.3545 19.6574V13.9254H4.53965H4.5399ZM1.57055 14.6015C1.59984 14.6015 1.62954 14.6308 1.65881 14.6308C1.80568 14.6308 2.04075 14.5718 2.30533 14.3367C2.51121 14.1308 2.83441 14.0132 3.18723 13.9252H2.07033C1.7762 13.9252 1.62942 13.9545 1.60003 13.9545C1.60003 13.9838 1.57074 14.0135 1.57074 14.1014C1.54145 14.3955 1.54145 14.5423 1.57074 14.6011L1.57055 14.6015ZM20.6477 13.9254C21.0002 13.9844 21.3237 14.1313 21.5296 14.3369C21.7943 14.572 22.0293 14.631 22.1762 14.631C22.2054 14.631 22.2351 14.631 22.2644 14.6017C22.2937 14.4842 22.2937 14.2198 22.2937 14.0726V13.9551C22.2347 13.9258 22.1171 13.9258 21.8822 13.9258H20.6477L20.6477 13.9254Z" fill="white"/>
<path id="Vector_3" d="M19.8249 12.397H4.06958C3.92271 12.397 3.80491 12.3381 3.68764 12.2205C3.57037 12.1029 3.54077 11.9853 3.57012 11.8386C3.74668 10.4571 4.92222 9.42839 6.30401 9.42839H10.4484L10.2719 8.78187C10.2129 8.5172 10.2719 8.22331 10.4484 7.98852C10.6543 7.72385 11.0364 7.54761 11.3891 7.54761H12.271C12.6235 7.54761 12.9766 7.72416 13.2117 7.98852C13.3882 8.22367 13.4468 8.5176 13.3882 8.78187L13.2117 9.42839H17.562C18.9434 9.42839 20.1194 10.457 20.2959 11.8386C20.3252 11.9854 20.2666 12.1327 20.1784 12.2205C20.0901 12.3087 19.9725 12.397 19.8259 12.397H19.8249ZM4.7164 11.3977H19.1492C18.8551 10.8097 18.2673 10.4278 17.5619 10.4278H12.5944C12.4475 10.4278 12.3002 10.3688 12.2124 10.2512C12.1246 10.1336 12.0949 9.98653 12.1242 9.83972L12.4183 8.60521C12.389 8.57592 12.33 8.54621 12.2714 8.54621H11.3895C11.3305 8.54621 11.272 8.5755 11.2426 8.60521L11.5368 9.83972C11.566 9.98659 11.5368 10.1338 11.4485 10.2512C11.3602 10.3686 11.2133 10.4278 11.0666 10.4278H6.27508C5.5991 10.3985 5.01113 10.8097 4.71726 11.3977H4.7164Z" fill="white"/>
</g>
</g>
</svg>
