<?xml version="1.0" encoding="utf-8"?>
<!-- Generator: Adobe Illustrator 25.2.1, SVG Export Plug-In . SVG Version: 6.00 Build 0)  -->
<svg version="1.1" id="图层_1" xmlns="http://www.w3.org/2000/svg" xmlns:xlink="http://www.w3.org/1999/xlink" x="0px" y="0px"
	 viewBox="0 0 146 40" style="enable-background:new 0 0 146 40;" xml:space="preserve">
<style type="text/css">
	.st0{fill:url(#XMLID_2_);}
	.st1{clip-path:url(#SVGID_2_);fill:url(#SVGID_3_);}
	.st2{clip-path:url(#SVGID_5_);fill:url(#SVGID_6_);}
	.st3{clip-path:url(#SVGID_8_);fill:url(#SVGID_9_);}
	.st4{fill:#FFFFFF;}
</style>
<g>
	<g>
		<g>
			
				<linearGradient id="XMLID_2_" gradientUnits="userSpaceOnUse" x1="8.9648" y1="-2972.718" x2="39.9712" y2="-2954.8164" gradientTransform="matrix(1 0 0 -1 0 -2950.1182)">
				<stop  offset="0" style="stop-color:#E48E00"/>
				<stop  offset="0.1853" style="stop-color:#F6AB00"/>
				<stop  offset="0.3194" style="stop-color:#FABE00"/>
				<stop  offset="0.4702" style="stop-color:#FDD108"/>
			</linearGradient>
			<path id="XMLID_00000153707068920532936140000014195604654424611459_" class="st0" d="M36.77,5H0.71l0,0
				c0,6.61,5.34,11.95,11.95,11.95h4.12c-0.67,1.89-1.05,3.87-1.05,6.02c0,7.24,4.63,12.03,8.5,12.03c3.7,0,6.86-2.73,7.41-6.35
				c-2.31-0.84-3.96-3.07-3.96-5.68c0-3.96,3.53-6.02,6.02-6.02c1.98,0,3.7,1.01,4.8,2.4c2.23-1.73,4.21-5.34,4.21-8.42
				C42.7,7.65,40.05,5,36.77,5z"/>
		</g>
		<g>
			<g>
				<g>
					<g>
						<g>
							<g>
								<g>
									<g>
										<g>
											<defs>
												<path id="SVGID_1_" d="M36.77,5H0.71l0,0c0,6.61,5.34,11.95,11.95,11.95h4.12c-0.67,1.89-1.05,3.87-1.05,6.02
													c0,7.24,4.63,12.03,8.5,12.03c3.7,0,6.86-2.73,7.41-6.35c-2.31-0.84-3.96-3.07-3.96-5.68c0-3.96,3.53-6.02,6.02-6.02
													c1.98,0,3.7,1.01,4.8,2.4c2.23-1.73,4.21-5.34,4.21-8.42C42.7,7.65,40.05,5,36.77,5z"/>
											</defs>
											<clipPath id="SVGID_2_">
												<use xlink:href="#SVGID_1_"  style="overflow:visible;"/>
											</clipPath>
											
												<linearGradient id="SVGID_3_" gradientUnits="userSpaceOnUse" x1="4.8042" y1="-2958.262" x2="40.5294" y2="-2896.384" gradientTransform="matrix(1 0 0 -1 0 -2950.1182)">
												<stop  offset="0" style="stop-color:#FDD000;stop-opacity:0.2"/>
												<stop  offset="0.5012" style="stop-color:#E48E00"/>
											</linearGradient>
											<path class="st1" d="M55.24-21.04c0,18.56-15.02,33.66-33.66,33.66S-11.91-2.41-11.91-21.04S3.11-54.62,21.66-54.62
												c7.49,0,17.8-0.59,23.44,3.62C53.3-44.99,55.24-32.19,55.24-21.04z"/>
										</g>
									</g>
								</g>
							</g>
						</g>
					</g>
				</g>
			</g>
		</g>
		<g>
			<g>
				<g>
					<g>
						<g>
							<g>
								<g>
									<g>
										<g>
											<defs>
												<path id="SVGID_4_" d="M36.77,5H0.71l0,0c0,6.61,5.34,11.95,11.95,11.95h4.12c-0.67,1.89-1.05,3.87-1.05,6.02
													c0,7.24,4.63,12.03,8.5,12.03c3.7,0,6.86-2.73,7.41-6.35c-2.31-0.84-3.96-3.07-3.96-5.68c0-3.96,3.53-6.02,6.02-6.02
													c1.98,0,3.7,1.01,4.8,2.4c2.23-1.73,4.21-5.34,4.21-8.42C42.7,7.65,40.05,5,36.77,5z"/>
											</defs>
											<clipPath id="SVGID_5_">
												<use xlink:href="#SVGID_4_"  style="overflow:visible;"/>
											</clipPath>
											
												<linearGradient id="SVGID_6_" gradientUnits="userSpaceOnUse" x1="18.0316" y1="-2981.5942" x2="50.0361" y2="-2963.1165" gradientTransform="matrix(1 0 0 -1 0 -2950.1182)">
												<stop  offset="1.614687e-07" style="stop-color:#E48E00"/>
												<stop  offset="0.0716" style="stop-color:#F39800"/>
												<stop  offset="0.1786" style="stop-color:#F6AB00"/>
												<stop  offset="0.6" style="stop-color:#FDD108"/>
											</linearGradient>
											<path class="st2" d="M51.03,22.63c0,9.72-7.91,17.63-17.63,17.63s-17.67-7.87-17.67-17.63S23.56,5,33.36,5
												c3.96,0,9.34-0.34,12.29,1.98C50.02,10.09,51.03,16.78,51.03,22.63z"/>
										</g>
									</g>
								</g>
							</g>
						</g>
					</g>
				</g>
			</g>
		</g>
		<g>
			<g>
				<g>
					<g>
						<g>
							<g>
								<g>
									<g>
										<g>
											<defs>
												<path id="SVGID_7_" d="M36.77,5H0.71l0,0c0,6.61,5.34,11.95,11.95,11.95h4.12c-0.67,1.89-1.05,3.87-1.05,6.02
													c0,7.24,4.63,12.03,8.5,12.03c3.7,0,6.86-2.73,7.41-6.35c-2.31-0.84-3.96-3.07-3.96-5.68c0-3.96,3.53-6.02,6.02-6.02
													c1.98,0,3.7,1.01,4.8,2.4c2.23-1.73,4.21-5.34,4.21-8.42C42.7,7.65,40.05,5,36.77,5z"/>
											</defs>
											<clipPath id="SVGID_8_">
												<use xlink:href="#SVGID_7_"  style="overflow:visible;"/>
											</clipPath>
											
												<linearGradient id="SVGID_9_" gradientUnits="userSpaceOnUse" x1="24.0102" y1="-2967.1519" x2="49.2128" y2="-2967.1519" gradientTransform="matrix(1 0 0 -1 0 -2950.1182)">
												<stop  offset="2.422030e-07" style="stop-color:#FDD108"/>
												<stop  offset="1" style="stop-color:#E48E00"/>
											</linearGradient>
											<circle class="st3" cx="36.68" cy="17.03" r="12.62"/>
										</g>
									</g>
								</g>
							</g>
						</g>
					</g>
				</g>
			</g>
		</g>
	</g>
	<g>
		<path class="st4" d="M55.44,30.54V13.03h-6.26V9.46h16.75v3.57h-6.24v17.52H55.44z"/>
		<path class="st4" d="M73.43,30.54V13.03h-6.26V9.46h16.75v3.57h-6.24v17.52H73.43z"/>
		<path class="st4" d="M86.67,30.54V9.46h6.83c2.59,0,4.28,0.11,5.06,0.32c1.21,0.32,2.22,1,3.03,2.06
			c0.81,1.06,1.22,2.43,1.22,4.11c0,1.29-0.23,2.38-0.7,3.26c-0.47,0.88-1.07,1.57-1.79,2.08c-0.72,0.5-1.46,0.84-2.21,1
			c-1.02,0.2-2.49,0.3-4.42,0.3h-2.78v7.95H86.67z M90.93,13.03v5.98h2.33c1.68,0,2.8-0.11,3.37-0.33c0.57-0.22,1.01-0.57,1.33-1.04
			c0.32-0.47,0.48-1.02,0.48-1.64c0-0.77-0.23-1.4-0.68-1.9c-0.45-0.5-1.02-0.81-1.71-0.93c-0.51-0.1-1.53-0.14-3.06-0.14H90.93z"/>
		<path class="st4" d="M105.46,20.13c0-2.15,0.32-3.95,0.96-5.41c0.48-1.07,1.13-2.04,1.96-2.89c0.83-0.85,1.74-1.49,2.73-1.9
			c1.31-0.56,2.83-0.83,4.54-0.83c3.11,0,5.59,0.96,7.46,2.89c1.86,1.93,2.8,4.61,2.8,8.04c0,3.4-0.93,6.07-2.78,7.99
			c-1.85,1.92-4.32,2.88-7.42,2.88c-3.14,0-5.63-0.96-7.48-2.87C106.38,26.12,105.46,23.49,105.46,20.13z M109.84,19.99
			c0,2.39,0.55,4.2,1.65,5.43c1.1,1.23,2.5,1.85,4.2,1.85c1.7,0,3.09-0.61,4.18-1.83c1.09-1.22,1.63-3.06,1.63-5.5
			c0-2.42-0.53-4.22-1.59-5.41c-1.06-1.19-2.47-1.78-4.22-1.78c-1.75,0-3.17,0.6-4.24,1.8C110.38,15.75,109.84,17.56,109.84,19.99z"
			/>
		<path class="st4" d="M128.15,23.68l4.14-0.4c0.25,1.39,0.76,2.41,1.52,3.06c0.76,0.65,1.79,0.98,3.08,0.98
			c1.37,0,2.4-0.29,3.1-0.87c0.69-0.58,1.04-1.26,1.04-2.04c0-0.5-0.15-0.92-0.44-1.27c-0.29-0.35-0.8-0.65-1.53-0.91
			c-0.5-0.17-1.63-0.48-3.41-0.92c-2.28-0.57-3.88-1.26-4.8-2.09c-1.29-1.16-1.94-2.57-1.94-4.24c0-1.07,0.3-2.08,0.91-3.01
			c0.61-0.93,1.49-1.65,2.63-2.14c1.15-0.49,2.53-0.73,4.15-0.73c2.65,0,4.64,0.58,5.98,1.74c1.34,1.16,2.04,2.71,2.11,4.65
			l-4.26,0.19c-0.18-1.08-0.57-1.86-1.17-2.34c-0.6-0.47-1.5-0.71-2.7-0.71c-1.24,0-2.21,0.25-2.9,0.76
			c-0.45,0.33-0.68,0.76-0.68,1.31c0,0.5,0.21,0.93,0.63,1.28c0.54,0.45,1.84,0.92,3.91,1.41c2.07,0.49,3.6,0.99,4.59,1.52
			c0.99,0.52,1.77,1.24,2.33,2.14c0.56,0.91,0.84,2.03,0.84,3.36c0,1.21-0.34,2.34-1.01,3.39c-0.67,1.05-1.62,1.84-2.85,2.35
			c-1.23,0.51-2.76,0.77-4.59,0.77c-2.67,0-4.71-0.62-6.14-1.85C129.28,27.84,128.43,26.04,128.15,23.68z"/>
	</g>
</g>
</svg>
