<svg width="20" height="20" viewBox="0 0 20 20" fill="none" xmlns="http://www.w3.org/2000/svg">
<g id="Form Fields/Checkbox input">
<rect x="0.5" y="0.5" width="19" height="19" rx="3.5" fill="#FFBE00"/>
<rect x="0.5" y="0.5" width="19" height="19" rx="3.5" stroke="#FFBE00"/>
<path id="Icon" d="M15.2585 5.99123C15.4929 6.22564 15.6245 6.54352 15.6245 6.87498C15.6245 7.20643 15.4929 7.52432 15.2585 7.75873L9.00853 14.0087C8.77412 14.2431 8.45623 14.3747 8.12478 14.3747C7.79332 14.3747 7.47544 14.2431 7.24103 14.0087L4.74103 11.5087C4.51333 11.273 4.38734 10.9572 4.39018 10.6295C4.39303 10.3017 4.52449 9.98821 4.75625 9.75645C4.98801 9.52469 5.30153 9.39323 5.62927 9.39038C5.95702 9.38754 6.27277 9.51353 6.50853 9.74123L8.12478 11.3575L13.491 5.99123C13.7254 5.75689 14.0433 5.62524 14.3748 5.62524C14.7062 5.62524 15.0241 5.75689 15.2585 5.99123Z" fill="white"/>
</g>
</svg>
