<svg width="56" height="56" viewBox="0 0 56 56" fill="none" xmlns="http://www.w3.org/2000/svg">
<g id="vuesax/bold/monitor-mobbile">
<g id="monitor-mobbile">
<path id="Vector" d="M48.9767 22.6567C48.1833 22.33 47.1333 22.1667 45.8267 22.1667H33.5067C29.4467 22.1667 28 23.6133 28 27.72V45.78C28 47.1333 28.1633 48.1833 28.5133 49C29.2367 50.68 30.7767 51.3333 33.5067 51.3333H45.8267C49.8867 51.3333 51.3333 49.8633 51.3333 45.78V27.72C51.3333 24.9433 50.68 23.38 48.9767 22.6567ZM42 46.0833H37.3333C37.2867 46.0833 37.2167 46.0833 37.17 46.06C36.82 46.0367 36.5167 45.92 36.26 45.6867C35.84 45.3833 35.5833 44.8933 35.5833 44.3333C35.5833 43.3767 36.3767 42.5833 37.3333 42.5833H42C42.9567 42.5833 43.75 43.3767 43.75 44.3333C43.75 45.29 42.9567 46.0833 42 46.0833Z" fill="#FFBE00"/>
<path id="Vector_2" d="M48.9766 14.4433V16.3333C48.9766 17.6167 47.9266 18.6667 46.6433 18.6667H33.5066C27.5333 18.6667 24.4999 21.7233 24.4999 27.72V49C24.4999 50.2833 23.4499 51.3333 22.1666 51.3333H17.6166C16.6833 51.3333 15.9366 50.5867 15.9366 49.6767C15.9366 48.7433 16.6833 48.02 17.6166 48.02H22.1666V39.0833H13.9999C8.81994 38.8267 4.68994 34.5567 4.68994 29.3067V14.4433C4.68994 9.05332 9.07661 4.66666 14.4899 4.66666H39.1999C44.5899 4.66666 48.9766 9.05332 48.9766 14.4433Z" fill="#FFBE00"/>
</g>
</g>
</svg>
