<svg width="64" height="64" viewBox="0 0 64 64" fill="none" xmlns="http://www.w3.org/2000/svg">
<g id="vuesax/bold/lock">
<path id="Vector" d="M32 46.2667C34.4006 46.2667 36.3467 44.3206 36.3467 41.92C36.3467 39.5194 34.4006 37.5733 32 37.5733C29.5994 37.5733 27.6533 39.5194 27.6533 41.92C27.6533 44.3206 29.5994 46.2667 32 46.2667Z" fill="#E50028"/>
<path id="Vector_2" d="M48.7468 25.4133V22.08C48.7468 14.88 47.0135 5.33333 32.0002 5.33333C16.9868 5.33333 15.2535 14.88 15.2535 22.08V25.4133C7.78683 26.3467 5.3335 30.1333 5.3335 39.44V44.4C5.3335 55.3333 8.66683 58.6667 19.6002 58.6667H44.4002C55.3335 58.6667 58.6668 55.3333 58.6668 44.4V39.44C58.6668 30.1333 56.2135 26.3467 48.7468 25.4133ZM32.0002 49.9733C27.5468 49.9733 23.9468 46.3467 23.9468 41.92C23.9468 37.4667 27.5735 33.8667 32.0002 33.8667C36.4268 33.8667 40.0535 37.4933 40.0535 41.92C40.0535 46.3733 36.4535 49.9733 32.0002 49.9733ZM19.6002 25.1733C19.3868 25.1733 19.2002 25.1733 18.9868 25.1733V22.08C18.9868 14.2667 21.2002 9.06667 32.0002 9.06667C42.8002 9.06667 45.0135 14.2667 45.0135 22.08V25.2C44.8002 25.2 44.6135 25.2 44.4002 25.2H19.6002V25.1733Z" fill="#E50028"/>
</g>
</svg>
