<?xml version="1.0" encoding="utf-8"?>
<!-- Generator: Adobe Illustrator 26.1.0, SVG Export Plug-In . SVG Version: 6.00 Build 0)  -->
<svg version="1.1" id="图层_1" xmlns="http://www.w3.org/2000/svg" xmlns:xlink="http://www.w3.org/1999/xlink" x="0px" y="0px"
	 viewBox="0 0 50 50" style="enable-background:new 0 0 50 50;" xml:space="preserve">
<style type="text/css">
	.st0{fill:url(#XMLID_00000028292391293024932450000017629049286047551413_);}
	
		.st1{clip-path:url(#SVGID_00000037673084935935271290000013368402486170361526_);fill:url(#SVGID_00000144303102680330558720000012182619156409947828_);}
	
		.st2{clip-path:url(#SVGID_00000065786109902194559160000014450736406418608788_);fill:url(#SVGID_00000142163695454389253910000004189402479448332936_);}
	
		.st3{clip-path:url(#SVGID_00000147913013117302167370000003630624899309164965_);fill:url(#SVGID_00000065032261247470712670000010514741766718326972_);}
</style>
<g>
	<g>
		<g>
			
				<linearGradient id="XMLID_00000163770011745834908380000015146549426545137310_" gradientUnits="userSpaceOnUse" x1="9.8297" y1="2256.3245" x2="46.7488" y2="2235.009" gradientTransform="matrix(1 0 0 1 0 -2228.2283)">
				<stop  offset="0" style="stop-color:#E48E00"/>
				<stop  offset="0.1853" style="stop-color:#F6AB00"/>
				<stop  offset="0.3194" style="stop-color:#FABE00"/>
				<stop  offset="0.4702" style="stop-color:#FDD108"/>
			</linearGradient>
			<path id="XMLID_21_" style="fill:url(#XMLID_00000163770011745834908380000015146549426545137310_);" d="M42.9,7.1H0l0,0
				C0,15,6.4,21.4,14.2,21.4h4.9c-0.8,2.3-1.3,4.6-1.3,7.2c0,8.6,5.5,14.3,10.1,14.3c4.4,0,8.2-3.2,8.8-7.6c-2.8-1-4.7-3.6-4.7-6.8
				c0-4.7,4.2-7.2,7.2-7.2c2.4,0,4.4,1.2,5.7,2.8c2.7-2.1,5-6.4,5-10C50,10.3,46.9,7.1,42.9,7.1z"/>
		</g>
		<g>
			<g>
				<g>
					<g>
						<g>
							<g>
								<defs>
									<path id="SVGID_1_" d="M42.9,7.1H0l0,0C0,15,6.4,21.4,14.2,21.4h4.9c-0.8,2.3-1.3,4.6-1.3,7.2c0,8.6,5.5,14.3,10.1,14.3
										c4.4,0,8.2-3.2,8.8-7.6c-2.8-1-4.7-3.6-4.7-6.8c0-4.7,4.2-7.2,7.2-7.2c2.4,0,4.4,1.2,5.7,2.8c2.7-2.1,5-6.4,5-10
										C50,10.3,46.9,7.1,42.9,7.1z"/>
								</defs>
								<clipPath id="SVGID_00000101797868023541031320000017090704622388159934_">
									<use xlink:href="#SVGID_1_"  style="overflow:visible;"/>
								</clipPath>
								
									<linearGradient id="SVGID_00000176725709933947467400000011152799037252091009_" gradientUnits="userSpaceOnUse" x1="4.8773" y1="2239.0649" x2="47.4102" y2="2165.3958" gradientTransform="matrix(1 0 0 1 0 -2228.2283)">
									<stop  offset="0" style="stop-color:#FDD000;stop-opacity:0.2"/>
									<stop  offset="0.5012" style="stop-color:#E48E00"/>
								</linearGradient>
								
									<path style="clip-path:url(#SVGID_00000101797868023541031320000017090704622388159934_);fill:url(#SVGID_00000176725709933947467400000011152799037252091009_);" d="
									M64.9-23.9c0,22.1-17.9,40.1-40.1,40.1S-15-1.7-15-23.9s17.9-40,40-40c8.9,0,21.2-0.7,27.9,4.3
									C62.7-52.4,64.9-37.2,64.9-23.9z"/>
							</g>
						</g>
					</g>
				</g>
			</g>
		</g>
		<g>
			<g>
				<g>
					<g>
						<g>
							<g>
								<defs>
									<path id="SVGID_00000160159404608916732430000001584294389160415403_" d="M42.9,7.1H0l0,0C0,15,6.4,21.4,14.2,21.4h4.9
										c-0.8,2.3-1.3,4.6-1.3,7.2c0,8.6,5.5,14.3,10.1,14.3c4.4,0,8.2-3.2,8.8-7.6c-2.8-1-4.7-3.6-4.7-6.8c0-4.7,4.2-7.2,7.2-7.2
										c2.4,0,4.4,1.2,5.7,2.8c2.7-2.1,5-6.4,5-10C50,10.3,46.9,7.1,42.9,7.1z"/>
								</defs>
								<clipPath id="SVGID_00000178918267273511056290000005262976614076252846_">
									<use xlink:href="#SVGID_00000160159404608916732430000001584294389160415403_"  style="overflow:visible;"/>
								</clipPath>
								
									<linearGradient id="SVGID_00000183939771477755297470000012128213501122973838_" gradientUnits="userSpaceOnUse" x1="20.6346" y1="2266.9045" x2="58.7748" y2="2244.8843" gradientTransform="matrix(1 0 0 1 0 -2228.2283)">
									<stop  offset="1.614687e-07" style="stop-color:#E48E00"/>
									<stop  offset="7.156011e-02" style="stop-color:#F39800"/>
									<stop  offset="0.1786" style="stop-color:#F6AB00"/>
									<stop  offset="0.6" style="stop-color:#FDD108"/>
								</linearGradient>
								
									<path style="clip-path:url(#SVGID_00000178918267273511056290000005262976614076252846_);fill:url(#SVGID_00000183939771477755297470000012128213501122973838_);" d="
									M59.9,28.1c0,11.6-9.4,21-21,21s-21-9.4-21-21s9.3-21,21-21c4.7,0,11.1-0.4,14.6,2.4C58.7,13.2,59.9,21.2,59.9,28.1z"/>
							</g>
						</g>
					</g>
				</g>
			</g>
		</g>
		<g>
			<g>
				<g>
					<g>
						<g>
							<g>
								<defs>
									<path id="SVGID_00000031892190978458691960000008782482038604472724_" d="M42.9,7.1H0l0,0C0,15,6.4,21.4,14.2,21.4h4.9
										c-0.8,2.3-1.3,4.6-1.3,7.2c0,8.6,5.5,14.3,10.1,14.3c4.4,0,8.2-3.2,8.8-7.6c-2.8-1-4.7-3.6-4.7-6.8c0-4.7,4.2-7.2,7.2-7.2
										c2.4,0,4.4,1.2,5.7,2.8c2.7-2.1,5-6.4,5-10C50,10.3,46.9,7.1,42.9,7.1z"/>
								</defs>
								<clipPath id="SVGID_00000060741883635286920330000005168764985377101987_">
									<use xlink:href="#SVGID_00000031892190978458691960000008782482038604472724_"  style="overflow:visible;"/>
								</clipPath>
								
									<linearGradient id="SVGID_00000037667962208616165060000004386855783363550394_" gradientUnits="userSpaceOnUse" x1="27.7505" y1="2249.6919" x2="57.7751" y2="2249.6919" gradientTransform="matrix(1 0 0 1 0 -2228.2283)">
									<stop  offset="2.422030e-07" style="stop-color:#FDD108"/>
									<stop  offset="1" style="stop-color:#E48E00"/>
								</linearGradient>
								
									<circle style="clip-path:url(#SVGID_00000060741883635286920330000005168764985377101987_);fill:url(#SVGID_00000037667962208616165060000004386855783363550394_);" cx="42.8" cy="21.5" r="15"/>
							</g>
						</g>
					</g>
				</g>
			</g>
		</g>
	</g>
</g>
</svg>
