<svg width="56" height="56" viewBox="0 0 56 56" fill="none" xmlns="http://www.w3.org/2000/svg">
<path d="M48.9767 22.6567C48.1833 22.33 47.1333 22.1667 45.8267 22.1667H33.5067C29.4467 22.1667 28 23.6133 28 27.72V45.78C28 47.1333 28.1633 48.1833 28.5133 49C29.2367 50.68 30.7767 51.3333 33.5067 51.3333H45.8267C49.8867 51.3333 51.3333 49.8633 51.3333 45.78V27.72C51.3333 24.9433 50.68 23.38 48.9767 22.6567ZM42 46.0833H37.3333C37.2867 46.0833 37.2167 46.0833 37.17 46.06C36.82 46.0367 36.5167 45.92 36.26 45.6867C35.84 45.3833 35.5833 44.8933 35.5833 44.3333C35.5833 43.3767 36.3767 42.5833 37.3333 42.5833H42C42.9567 42.5833 43.75 43.3767 43.75 44.3333C43.75 45.29 42.9567 46.0833 42 46.0833Z" fill="#FFBE00"/>
<path d="M48.9771 14.4433V16.3333C48.9771 17.6167 47.9271 18.6667 46.6438 18.6667H33.5071C27.5338 18.6667 24.5004 21.7233 24.5004 27.72V49C24.5004 50.2833 23.4504 51.3333 22.1671 51.3333H17.6171C16.6838 51.3333 15.9371 50.5867 15.9371 49.6767C15.9371 48.7433 16.6838 48.02 17.6171 48.02H22.1671V39.0833H14.0004C8.82043 38.8267 4.69043 34.5567 4.69043 29.3067V14.4433C4.69043 9.05332 9.0771 4.66666 14.4904 4.66666H39.2004C44.5904 4.66666 48.9771 9.05332 48.9771 14.4433Z" fill="#FFBE00"/>
</svg>
