<svg width="24" height="24" viewBox="0 0 24 24" fill="none" xmlns="http://www.w3.org/2000/svg">
<g id="pengren 1">
<g id="Group 3501">
<path id="Vector" d="M6.18573 10.0455H11.0652L10.7417 8.75219C10.6535 8.39968 11.0358 8.10567 11.3882 8.10567H12.2997C12.6522 8.10567 13.0346 8.39979 12.9462 8.75219L12.6228 10.0455H17.6785C18.8543 10.0455 19.8243 10.9275 19.9715 12.0443H3.92223C4.03975 10.9274 5.03913 10.0455 6.18558 10.0455H6.18573ZM19.9716 13.1026H22.0586C22.8519 13.1026 22.97 13.3085 22.9992 13.7491C22.9992 14.1016 23.0285 14.484 22.8817 14.631C22.5876 14.9544 21.941 14.8957 21.3824 14.3958C21.0299 14.0724 20.4125 14.0433 20.001 14.0433V19.4226C20.001 20.6865 18.9723 21.7156 17.708 21.7156H6.21495C4.951 21.7156 3.92195 20.6869 3.92195 19.4226V14.0433C3.51048 14.0141 2.86404 14.0726 2.51109 14.3958C1.95253 14.8956 1.3059 14.9544 1.01176 14.631C0.86489 14.4841 0.86489 14.0724 0.894239 13.7491C0.953231 13.22 1.10012 13.1026 1.92289 13.1026H19.9712M8.91949 4.34305C9.33096 4.75452 9.33096 5.45995 8.91949 5.87154C8.77261 6.04809 8.77261 6.31245 8.91949 6.45951C9.00774 6.54776 9.09604 6.57703 9.21361 6.57703C9.30187 6.57703 9.41949 6.54774 9.50773 6.45951C10.2133 5.72458 10.2133 4.49017 9.50773 3.7551C9.30184 3.54921 9.21361 3.2848 9.21361 2.99078C9.21361 2.69676 9.33113 2.43222 9.50773 2.22646C9.6546 2.0499 9.6546 1.78555 9.50773 1.63849C9.36086 1.46193 9.09625 1.46193 8.94917 1.63849C8.59667 1.99099 8.42009 2.49096 8.42009 2.99059C8.3908 3.4903 8.56696 3.9605 8.9198 4.34269L8.91949 4.34305ZM11.6823 5.84227C11.5355 6.01883 11.5355 6.28318 11.6823 6.43024C11.7706 6.5185 11.8589 6.54777 11.9765 6.54777C12.0647 6.54777 12.1823 6.51848 12.2706 6.43024C12.9761 5.69532 12.9761 4.46091 12.2706 3.72583C12.0647 3.51995 11.9765 3.25553 11.9765 2.96151C11.9765 2.6675 12.094 2.40296 12.2706 2.1972C12.4175 2.02064 12.4175 1.75629 12.2706 1.60922C12.1237 1.43267 11.8591 1.43267 11.712 1.60922C11.3595 1.96173 11.1829 2.4617 11.1829 2.96132C11.1829 3.46104 11.3595 3.96069 11.712 4.31342C12.0645 4.75433 12.0645 5.43033 11.6827 5.84191L11.6823 5.84227ZM14.2691 5.84227C14.1222 6.01883 14.1222 6.28318 14.2691 6.43024C14.3573 6.5185 14.4456 6.54777 14.5632 6.54777C14.6807 6.54777 14.7691 6.51848 14.8573 6.43024C15.5629 5.69532 15.5629 4.46091 14.8573 3.72583C14.6514 3.51995 14.5632 3.25553 14.5632 2.96151C14.5632 2.6675 14.6807 2.40296 14.8573 2.1972C15.0042 2.02064 15.0042 1.75629 14.8573 1.60922C14.7104 1.43267 14.4458 1.43267 14.2987 1.60922C13.9462 1.96173 13.7697 2.4617 13.7697 2.96132C13.7697 3.46095 13.9462 3.96069 14.2987 4.31342C14.6807 4.75433 14.6807 5.43033 14.2695 5.84191L14.2691 5.84227Z" fill="#FFBE00"/>
<path id="Vector_2" d="M17.5907 22.3912H6.30325C4.77476 22.3912 3.54016 21.1567 3.54016 19.6281V14.8659C3.2755 14.8952 3.09925 14.9542 2.9816 15.0425C2.57013 15.4244 2.07014 15.6305 1.60018 15.601C1.27673 15.5718 1.01221 15.4542 0.806825 15.2485C0.600939 15.0134 0.512702 14.5726 0.571674 14.014C0.659932 13.0147 1.33599 12.9265 2.071 12.9265H21.8827C22.5293 12.9265 23.2642 13.044 23.2936 14.0434C23.2936 14.4843 23.3229 14.9549 23.0585 15.2486C22.8526 15.4545 22.5882 15.6011 22.2651 15.6011C21.7948 15.6304 21.2952 15.4246 20.8837 15.0426C20.7954 14.9543 20.5896 14.8957 20.3546 14.866V19.6282C20.3253 21.1567 19.0906 22.3913 17.5915 22.3913L17.5907 22.3912ZM4.53978 13.9254V19.6574C4.53978 20.6273 5.33313 21.4209 6.30338 21.4209H17.5908C18.5607 21.4209 19.3544 20.6276 19.3544 19.6574V13.9254H4.53953H4.53978ZM1.57043 14.6015C1.59971 14.6015 1.62942 14.6308 1.65869 14.6308C1.80556 14.6308 2.04062 14.5718 2.30521 14.3367C2.51109 14.1308 2.83429 14.0132 3.18711 13.9252H2.0702C1.77608 13.9252 1.62929 13.9545 1.5999 13.9545C1.5999 13.9838 1.57062 14.0135 1.57062 14.1014C1.54133 14.3955 1.54133 14.5423 1.57062 14.6011L1.57043 14.6015ZM20.6476 13.9254C21.0001 13.9844 21.3236 14.1313 21.5295 14.3369C21.7942 14.572 22.0292 14.631 22.176 14.631C22.2053 14.631 22.235 14.631 22.2643 14.6017C22.2936 14.4842 22.2936 14.2198 22.2936 14.0726V13.9551C22.2346 13.9258 22.117 13.9258 21.8821 13.9258H20.6476L20.6476 13.9254Z" fill="#FFBE00"/>
<path id="Vector_3" d="M19.8249 12.397H4.06958C3.92271 12.397 3.80491 12.3381 3.68764 12.2205C3.57037 12.1029 3.54077 11.9853 3.57012 11.8386C3.74668 10.4571 4.92222 9.42839 6.30401 9.42839H10.4484L10.2719 8.78187C10.2129 8.5172 10.2719 8.22331 10.4484 7.98852C10.6543 7.72385 11.0364 7.54761 11.3891 7.54761H12.271C12.6235 7.54761 12.9766 7.72416 13.2117 7.98852C13.3882 8.22367 13.4468 8.5176 13.3882 8.78187L13.2117 9.42839H17.562C18.9434 9.42839 20.1194 10.457 20.2959 11.8386C20.3252 11.9854 20.2666 12.1327 20.1784 12.2205C20.0901 12.3087 19.9725 12.397 19.8259 12.397H19.8249ZM4.7164 11.3977H19.1492C18.8551 10.8097 18.2673 10.4278 17.5619 10.4278H12.5944C12.4475 10.4278 12.3002 10.3688 12.2124 10.2512C12.1246 10.1336 12.0949 9.98653 12.1242 9.83972L12.4183 8.60521C12.389 8.57592 12.33 8.54621 12.2714 8.54621H11.3895C11.3305 8.54621 11.272 8.5755 11.2426 8.60521L11.5368 9.83972C11.566 9.98659 11.5368 10.1338 11.4485 10.2512C11.3602 10.3686 11.2133 10.4278 11.0666 10.4278H6.27508C5.5991 10.3985 5.01113 10.8097 4.71726 11.3977H4.7164Z" fill="#FFBE00"/>
</g>
</g>
</svg>
