<svg width="60" height="60" viewBox="0 0 60 60" fill="none" xmlns="http://www.w3.org/2000/svg">
<g id="&#229;&#149;&#134;&#229;&#147;&#129;&#229;&#155;&#190;&#231;&#137;&#135;&#229;&#141;&#160;&#228;&#189;&#141;&#229;&#155;&#190;&#239;&#188;&#136;60*60&#239;&#188;&#137;" clip-path="url(#clip0_3106_42859)">
<rect id="image 3" width="60" height="60" fill="#F3F5F6"/>
<g id="gongdan_diancan 1" opacity="0.2">
<path id="Vector" d="M41.9933 37.2354H18.015C16.9145 37.2354 16.0155 36.3364 16.0155 35.2359V35.0654C16.527 28.9275 20.9755 23.828 27.0049 22.5105C28.9889 22.0765 31.0194 22.0765 33.0034 22.5105C39.0174 23.828 43.4813 28.912 43.9928 35.0654C44.0858 36.1659 43.2643 37.1269 42.1638 37.2199C42.1018 37.2354 42.0398 37.2354 41.9933 37.2354ZM42.6443 41.9629H17.3485C16.6045 41.9629 16 41.3584 16 40.6144C16 39.8704 16.6045 39.2659 17.3485 39.2659H42.6443C43.3883 39.2659 43.9928 39.8704 43.9928 40.6144C43.9928 41.3584 43.3883 41.9629 42.6443 41.9629Z" fill="#999999"/>
<path id="Vector_2" d="M26.2144 24.7425V21.782C26.2144 19.6895 27.9038 18 29.9963 18C32.0888 18 33.7783 19.6895 33.7783 21.782V24.7425L32.5693 24.479C30.8798 24.107 29.1128 24.107 27.4233 24.479L26.2144 24.7425ZM29.9963 22.2005C30.6008 22.2005 31.1898 22.2315 31.7788 22.309V21.7665C31.7788 20.7745 30.9728 19.984 29.9963 19.984C29.0198 19.984 28.2138 20.79 28.2138 21.7665V22.309C28.8028 22.2315 29.4073 22.2005 29.9963 22.2005Z" fill="#999999"/>
<path id="Vector_3" d="M32.5693 24.4789C30.8799 24.1069 29.1129 24.1069 27.4234 24.4789L27.0049 22.5259C28.9889 22.0919 31.0194 22.0919 33.0033 22.5259L32.5693 24.4789Z" fill="#999999"/>
</g>
</g>
<defs>
<clipPath id="clip0_3106_42859">
<rect width="60" height="60" fill="white"/>
</clipPath>
</defs>
</svg>
