<svg width="64" height="64" viewBox="0 0 64 64" fill="none" xmlns="http://www.w3.org/2000/svg">
<g id="vuesax/bold/notification">
<g id="notification">
<path id="Vector" d="M51.5735 38.6397L48.9068 34.213C48.3468 33.2263 47.8402 31.3597 47.8402 30.2663V23.5197C47.8402 17.253 44.1602 11.8397 38.8535 9.30634C37.4668 6.85301 34.9068 5.33301 31.9735 5.33301C29.0668 5.33301 26.4535 6.90634 25.0668 9.38634C19.8668 11.973 16.2668 17.333 16.2668 23.5197V30.2663C16.2668 31.3597 15.7602 33.2263 15.2002 34.1863L12.5068 38.6397C11.4402 40.4263 11.2002 42.3997 11.8668 44.213C12.5068 45.9997 14.0268 47.3863 16.0002 48.053C21.1735 49.813 26.6135 50.6663 32.0535 50.6663C37.4935 50.6663 42.9335 49.813 48.1068 48.0797C49.9735 47.4663 51.4135 46.053 52.1068 44.213C52.8002 42.373 52.6135 40.3463 51.5735 38.6397Z" fill="#E50028"/>
<path id="Vector_2" d="M39.5471 53.3597C38.4271 56.453 35.4671 58.6663 32.0005 58.6663C29.8938 58.6663 27.8138 57.813 26.3471 56.293C25.4938 55.493 24.8538 54.4263 24.4805 53.333C24.8271 53.3863 25.1738 53.413 25.5471 53.4663C26.1605 53.5463 26.8005 53.6263 27.4405 53.6797C28.9605 53.813 30.5071 53.893 32.0538 53.893C33.5738 53.893 35.0938 53.813 36.5871 53.6797C37.1471 53.6263 37.7071 53.5997 38.2405 53.5197C38.6671 53.4663 39.0938 53.413 39.5471 53.3597Z" fill="#E50028"/>
</g>
</g>
</svg>
