<?xml version="1.0" encoding="utf-8"?>
<!-- Generator: Adobe Illustrator 26.1.0, SVG Export Plug-In . SVG Version: 6.00 Build 0)  -->
<svg version="1.1" id="图层_1" xmlns="http://www.w3.org/2000/svg" xmlns:xlink="http://www.w3.org/1999/xlink" x="0px" y="0px"
	 viewBox="0 0 300 80.8" style="enable-background:new 0 0 300 80.8;" xml:space="preserve">
<style type="text/css">
	.st0{fill:url(#XMLID_00000052814189479819094080000002721006640693448106_);}
	
		.st1{clip-path:url(#SVGID_00000072246003867157262280000005722675879496395441_);fill:url(#SVGID_00000003105264844989479810000000731684564538835074_);}
	
		.st2{clip-path:url(#SVGID_00000179619841066805145010000014431546619107753890_);fill:url(#SVGID_00000131329525399942248280000006957613382880868024_);}
	
		.st3{clip-path:url(#SVGID_00000033359544959082572270000014393819610884100283_);fill:url(#SVGID_00000103264700157873959200000017635202430313845384_);}
	.st4{fill:#FFFFFF;}
</style>
<g>
	<g>
		<g>
			
				<linearGradient id="XMLID_00000172420969367476584850000016151407851756378755_" gradientUnits="userSpaceOnUse" x1="22.8222" y1="-2192.8572" x2="96.5138" y2="-2150.3113" gradientTransform="matrix(1 0 0 -1 0 -2146.2283)">
				<stop  offset="0" style="stop-color:#E48E00"/>
				<stop  offset="0.1853" style="stop-color:#F6AB00"/>
				<stop  offset="0.3194" style="stop-color:#FABE00"/>
				<stop  offset="0.4702" style="stop-color:#FDD108"/>
			</linearGradient>
			<path id="XMLID_21_" style="fill:url(#XMLID_00000172420969367476584850000016151407851756378755_);" d="M88.9,4.8H3.2l0,0
				c0,15.7,12.7,28.4,28.4,28.4h9.8c-1.6,4.5-2.5,9.2-2.5,14.3c0,17.2,11,28.6,20.2,28.6c8.8,0,16.3-6.5,17.6-15.1
				c-5.5-2-9.4-7.3-9.4-13.5c0-9.4,8.4-14.3,14.3-14.3c4.7,0,8.8,2.4,11.4,5.7c5.3-4.1,10-12.7,10-20C103,11.1,96.7,4.8,88.9,4.8z"
				/>
		</g>
		<g>
			<g>
				<g>
					<g>
						<g>
							<g>
								<g>
									<defs>
										<path id="SVGID_1_" d="M88.9,4.8H3.2l0,0c0,15.7,12.7,28.4,28.4,28.4h9.8c-1.6,4.5-2.5,9.2-2.5,14.3
											c0,17.2,11,28.6,20.2,28.6c8.8,0,16.3-6.5,17.6-15.1c-5.5-2-9.4-7.3-9.4-13.5c0-9.4,8.4-14.3,14.3-14.3
											c4.7,0,8.8,2.4,11.4,5.7c5.3-4.1,10-12.7,10-20C103,11.1,96.7,4.8,88.9,4.8z"/>
									</defs>
									<clipPath id="SVGID_00000072271335936324704120000010879621551668281751_">
										<use xlink:href="#SVGID_1_"  style="overflow:visible;"/>
									</clipPath>
									
										<linearGradient id="SVGID_00000045580800671574619950000005368501668959773833_" gradientUnits="userSpaceOnUse" x1="12.9337" y1="-2158.5" x2="97.8407" y2="-2011.4366" gradientTransform="matrix(1 0 0 -1 0 -2146.2283)">
										<stop  offset="0" style="stop-color:#FDD000;stop-opacity:0.2"/>
										<stop  offset="0.5012" style="stop-color:#E48E00"/>
									</linearGradient>
									
										<path style="clip-path:url(#SVGID_00000072271335936324704120000010879621551668281751_);fill:url(#SVGID_00000045580800671574619950000005368501668959773833_);" d="
										M132.8-57.1c0,44.1-35.7,80-80,80s-79.6-35.7-79.6-80S8.9-136.9,53-136.9c17.8,0,42.3-1.4,55.7,8.6
										C128.2-114,132.8-83.6,132.8-57.1z"/>
								</g>
							</g>
						</g>
					</g>
				</g>
			</g>
		</g>
		<g>
			<g>
				<g>
					<g>
						<g>
							<g>
								<g>
									<defs>
										<path id="SVGID_00000160164916084976413030000014820123769757802630_" d="M88.9,4.8H3.2l0,0c0,15.7,12.7,28.4,28.4,28.4
											h9.8c-1.6,4.5-2.5,9.2-2.5,14.3c0,17.2,11,28.6,20.2,28.6c8.8,0,16.3-6.5,17.6-15.1c-5.5-2-9.4-7.3-9.4-13.5
											c0-9.4,8.4-14.3,14.3-14.3c4.7,0,8.8,2.4,11.4,5.7c5.3-4.1,10-12.7,10-20C103,11.1,96.7,4.8,88.9,4.8z"/>
									</defs>
									<clipPath id="SVGID_00000064319016458357091380000003346569138968816551_">
										<use xlink:href="#SVGID_00000160164916084976413030000014820123769757802630_"  style="overflow:visible;"/>
									</clipPath>
									
										<linearGradient id="SVGID_00000109713351114015204620000006233376665604296329_" gradientUnits="userSpaceOnUse" x1="44.371" y1="-2213.9529" x2="120.4349" y2="-2170.0374" gradientTransform="matrix(1 0 0 -1 0 -2146.2283)">
										<stop  offset="1.614687e-07" style="stop-color:#E48E00"/>
										<stop  offset="7.156011e-02" style="stop-color:#F39800"/>
										<stop  offset="0.1786" style="stop-color:#F6AB00"/>
										<stop  offset="0.6" style="stop-color:#FDD108"/>
									</linearGradient>
									
										<path style="clip-path:url(#SVGID_00000064319016458357091380000003346569138968816551_);fill:url(#SVGID_00000109713351114015204620000006233376665604296329_);" d="
										M122.8,46.7c0,23.1-18.8,41.9-41.9,41.9s-42-18.7-42-41.9S57.5,4.8,80.8,4.8C90.2,4.8,103,4,110,9.5
										C120.4,16.9,122.8,32.8,122.8,46.7z"/>
								</g>
							</g>
						</g>
					</g>
				</g>
			</g>
		</g>
		<g>
			<g>
				<g>
					<g>
						<g>
							<g>
								<g>
									<defs>
										<path id="SVGID_00000011715132332364820490000013363855159644246174_" d="M88.9,4.8H3.2l0,0c0,15.7,12.7,28.4,28.4,28.4
											h9.8c-1.6,4.5-2.5,9.2-2.5,14.3c0,17.2,11,28.6,20.2,28.6c8.8,0,16.3-6.5,17.6-15.1c-5.5-2-9.4-7.3-9.4-13.5
											c0-9.4,8.4-14.3,14.3-14.3c4.7,0,8.8,2.4,11.4,5.7c5.3-4.1,10-12.7,10-20C103,11.1,96.7,4.8,88.9,4.8z"/>
									</defs>
									<clipPath id="SVGID_00000105415358020970498110000010711320815300994700_">
										<use xlink:href="#SVGID_00000011715132332364820490000013363855159644246174_"  style="overflow:visible;"/>
									</clipPath>
									
										<linearGradient id="SVGID_00000011744437384391408510000002501922506217780148_" gradientUnits="userSpaceOnUse" x1="58.5801" y1="-2179.6282" x2="118.4783" y2="-2179.6282" gradientTransform="matrix(1 0 0 -1 0 -2146.2283)">
										<stop  offset="2.422030e-07" style="stop-color:#FDD108"/>
										<stop  offset="1" style="stop-color:#E48E00"/>
									</linearGradient>
									
										<circle style="clip-path:url(#SVGID_00000105415358020970498110000010711320815300994700_);fill:url(#SVGID_00000011744437384391408510000002501922506217780148_);" cx="88.7" cy="33.4" r="30"/>
								</g>
							</g>
						</g>
					</g>
				</g>
			</g>
		</g>
	</g>
	<g>
		<path class="st4" d="M132.8,63.6V19.3h-15.9v-8.8h42.3v9h-15.9v44.1H132.8z"/>
		<path class="st4" d="M164.9,19.7v-9.4h10.2v9.4H164.9z M164.9,63.6V25.2h10.2v38.6C175.1,63.6,164.9,63.6,164.9,63.6z"/>
		<path class="st4" d="M184.7,66.1l11.8,1.4c0.2,1.4,0.6,2.4,1.4,2.7c1,0.8,2.5,1.2,4.5,1.2c2.7,0,4.7-0.4,6.1-1.2
			c1-0.6,1.6-1.4,2-2.5c0.4-0.8,0.4-2.4,0.4-4.7v-5.7c-3.1,4.1-6.9,6.3-11.6,6.3c-5.1,0-9.2-2.2-12.3-6.7c-2.4-3.5-3.5-7.8-3.5-12.9
			c0-6.5,1.6-11.4,4.7-14.9c3.1-3.3,7.1-5.1,11.6-5.1c4.7,0,8.8,2.2,11.8,6.3v-5.5h9.6v34.9c0,4.5-0.4,8-1.2,10.2
			c-0.8,2.4-1.8,4.1-3.1,5.3c-1.4,1.4-3.1,2.4-5.5,2.9c-2.4,0.8-5.1,1.2-8.6,1.2c-6.5,0-11.2-1.2-13.9-3.3c-2.7-2.2-4.1-5.1-4.1-8.6
			C184.7,67.1,184.7,66.7,184.7,66.1z M193.5,43.6c0,4.1,0.8,7.1,2.4,9c1.6,2,3.5,2.9,5.9,2.9c2.5,0,4.7-1,6.3-2.9
			c1.8-2,2.5-4.9,2.5-8.6c0-3.9-0.8-7.1-2.5-8.8c-1.6-2-3.7-2.9-6.3-2.9c-2.5,0-4.5,1-6.1,2.9C194.5,36.7,193.5,39.7,193.5,43.6z"/>
		<path class="st4" d="M253.5,51.4l10.2,1.8c-1.4,3.7-3.3,6.7-6.3,8.6c-2.7,2-6.3,2.9-10.6,2.9c-6.7,0-11.8-2.2-14.9-6.7
			c-2.5-3.5-3.7-8-3.7-13.3c0-6.5,1.8-11.4,5.1-15.1s7.6-5.5,12.7-5.5c5.7,0,10.2,2,13.5,5.7s4.9,9.6,4.7,17.4h-25.7
			c0,2.9,1,5.5,2.5,7.1c1.6,1.8,3.5,2.5,5.9,2.5c1.6,0,2.9-0.4,4.1-1.4C252.1,54.8,252.7,53.2,253.5,51.4z M254.1,41.1
			c0-2.9-0.8-5.3-2.4-6.7c-1.4-1.6-3.1-2.4-5.3-2.4s-4.1,0.8-5.5,2.4s-2.2,3.9-2.2,6.7H254.1z"/>
		<path class="st4" d="M282.1,63.6h-10.2V25.2h9.4v5.5c1.6-2.5,3.1-4.3,4.3-5.1c1.4-0.8,2.7-1.2,4.5-1.2c2.4,0,4.5,0.6,6.7,2
			l-3.1,8.8c-1.8-1.2-3.3-1.8-4.9-1.8c-1.4,0-2.5,0.4-3.7,1.2c-1,0.8-1.8,2.2-2.4,4.3c-0.6,2.2-0.8,6.5-0.8,12.9L282.1,63.6
			L282.1,63.6z"/>
	</g>
</g>
</svg>
